# xmcd CD database file
#
# Track frame offsets:
#	150
#	15162
#	32738
#	49475
#	67248
#	84173
#	98094
#	115374
#	132044
#	149690
#	165974
#	182914
#	197834
#	214792
#	232074
#	248910
#
# Disc length: 3517 seconds
#
# Revision: 0
# Processed by: cddbd v1.5.1PL0 Copyright (c) Steve Scherf et al.
# Submitted via: CDex 1.51
#
DISCID=e20dbb10
DTITLE=Cocoa Tea - How Dem Flex
DYEAR=1995
DGENRE=Reggae
TTITLE0=Come Love Me
TTITLE1=Take Time
TTITLE2=Party People
TTITLE3=How Dem Flex
TTITLE4=Secret Admirer
TTITLE5=Lonsome Side
TTITLE6=Love Me Truly
TTITLE7=Behold Jah Jah
TTITLE8=Too Much Gun Lyrics
TTITLE9=Rain Dub Plate
TTITLE10=Move Up Time
TTITLE11=We Do The Killing
TTITLE12=Babylon Get Fraid
TTITLE13=Love Me Truly
TTITLE14=Too Much Gun Lyrics
TTITLE15=Lonsome Side
EXTD=YEAR: 1995
EXTT0=
EXTT1=
EXTT2=
EXTT3=
EXTT4=
EXTT5=
EXTT6=
EXTT7=
EXTT8=
EXTT9=
EXTT10=
EXTT11=
EXTT12=
EXTT13=
EXTT14=
EXTT15=
PLAYORDER=
